<svg width="64" height="64" viewBox="0 0 64 64" fill="none" xmlns="http://www.w3.org/2000/svg">
  <rect width="64" height="64" rx="18" fill="#F27A2C"/>
  <path d="M42.5 21.5C39.7 18.8 36.2 17.5 32 17.5C25.8 17.5 21.5 20.8 21.5 25.4C21.5 30.1 25.4 32 31.3 33.5C35.4 34.5 37 35.3 37 37.4C37 39.5 34.8 40.8 31.7 40.8C27.8 40.8 24.6 39.3 21.6 36.4L18 40.7C21.6 44.5 26.2 46.5 31.5 46.5C38.5 46.5 43 42.9 43 37.2C43 32.4 39.6 30.2 33.1 28.6C29.1 27.6 27.4 26.9 27.4 24.9C27.4 23.2 29.2 22.1 32 22.1C34.9 22.1 37.3 23.2 39.5 25.4L42.5 21.5Z" fill="white"/>
  <path d="M48 13L49.4 16.6L53 18L49.4 19.4L48 23L46.6 19.4L43 18L46.6 16.6L48 13Z" fill="#FFE0C9"/>
</svg>
