<svg width="512" height="512" viewBox="0 0 512 512" fill="none" xmlns="http://www.w3.org/2000/svg">
  <rect width="512" height="512" fill="#F27A2C"/>
  <path d="M340 172C317.6 150.4 289.6 140 256 140C206.4 140 172 166.4 172 203.2C172 240.8 203.2 256 250.4 268C283.2 276 296 282.4 296 299.2C296 316 278.4 326.4 253.6 326.4C222.4 326.4 196.8 314.4 172.8 291.2L144 325.6C172.8 356 209.6 372 252 372C308 372 344 343.2 344 297.6C344 259.2 316.8 241.6 264.8 228.8C232.8 220.8 219.2 215.2 219.2 199.2C219.2 185.6 233.6 176.8 256 176.8C279.2 176.8 298.4 185.6 316 203.2L340 172Z" fill="white"/>
  <path d="M384 104L395.2 132.8L424 144L395.2 155.2L384 184L372.8 155.2L344 144L372.8 132.8L384 104Z" fill="#FFE0C9"/>
</svg>
